<?xml version="1.0" standalone="no"?>
<!DOCTYPE svg PUBLIC "-//W3C//DTD SVG 20010904//EN"
 "http://www.w3.org/TR/2001/REC-SVG-20010904/DTD/svg10.dtd">
<svg version="1.0" xmlns="http://www.w3.org/2000/svg"
 width="500.000000pt" height="500.000000pt" viewBox="0 0 500.000000 500.000000"
 preserveAspectRatio="xMidYMid meet">
<metadata>
Created by potrace 1.11, written by Peter Selinger 2001-2013
</metadata>
<g transform="translate(0.000000,500.000000) scale(0.100000,-0.100000)"
fill="#000000" stroke="none">
<path d="M2765 4838 c-101 -38 -157 -118 -196 -283 -21 -87 -29 -250 -16 -316
42 -214 169 -435 347 -602 70 -66 206 -167 224 -167 4 0 4 12 1 28 -13 67 -18
123 -18 204 1 84 3 92 76 275 95 237 97 247 93 368 -6 159 -56 276 -164 383
-71 71 -161 114 -250 118 -37 2 -80 -1 -97 -8z"/>
<path d="M1368 4565 c-2 -2 -19 -7 -38 -10 -89 -16 -183 -96 -214 -183 -91
-256 129 -678 474 -908 187 -125 414 -198 680 -220 64 -5 223 -8 272 -5 11 1
-2 18 -40 54 -67 62 -66 60 -163 209 -77 118 -95 158 -124 283 -9 39 -19 79
-21 90 -3 11 -7 31 -10 44 -19 91 -102 271 -155 337 -52 65 -160 163 -215 197
-114 69 -261 114 -378 115 -35 0 -66 -1 -68 -3z"/>
<path d="M4125 4178 c-110 -40 -204 -84 -251 -118 -121 -90 -215 -214 -288
-380 -17 -40 -45 -122 -52 -154 -22 -96 -30 -155 -28 -191 6 -122 17 -271 21
-278 6 -10 33 12 33 27 0 17 70 89 120 123 67 46 110 65 280 128 221 82 308
130 388 214 135 142 163 396 59 533 -58 76 -202 125 -282 96z"/>
<path d="M708 3335 c-2 -2 -25 -6 -53 -9 -124 -17 -205 -42 -314 -98 -122 -63
-162 -96 -223 -182 -92 -131 -124 -226 -115 -337 17 -197 205 -352 537 -443
182 -49 453 -67 635 -41 88 13 218 39 290 59 203 55 437 144 563 213 88 48
331 237 320 249 -3 2 -34 6 -69 9 -35 3 -84 8 -109 10 -109 10 -296 67 -400
123 -36 19 -101 60 -145 90 -44 31 -124 86 -178 124 -54 37 -100 68 -102 68
-2 0 -26 13 -52 28 -101 60 -275 116 -391 127 -84 8 -190 13 -194 10z"/>
<path d="M4200 3038 c-151 -24 -315 -83 -439 -157 -66 -40 -131 -95 -131 -111
0 -4 24 -12 53 -16 28 -4 54 -8 57 -9 128 -33 189 -68 336 -194 186 -159 275
-198 472 -206 232 -8 387 77 437 241 44 147 -20 259 -199 347 -70 35 -218 83
-286 93 -19 3 -42 7 -50 11 -25 9 -192 10 -250 1z"/>
<path d="M2685 2404 c-45 -50 -181 -146 -266 -186 -162 -77 -372 -136 -624
-175 -544 -83 -893 -297 -1054 -645 -130 -282 -114 -575 40 -730 140 -140 399
-148 746 -22 420 152 746 456 969 904 144 290 255 683 246 868 -1 17 -5 32 -9
32 -5 -1 -26 -21 -48 -46z"/>
<path d="M3510 2309 c0 -17 19 -48 90 -149 90 -128 107 -175 115 -327 11 -206
22 -260 76 -368 93 -186 254 -329 420 -371 133 -34 276 4 368 96 86 87 95 243
24 435 -106 287 -320 499 -608 602 -141 50 -485 109 -485 82z"/>
<path d="M3164 2057 c-2 -218 -76 -414 -223 -593 -28 -34 -31 -38 -112 -139
-145 -182 -201 -341 -195 -555 4 -135 21 -204 78 -320 31 -65 58 -102 114
-157 108 -107 216 -151 346 -140 163 14 279 146 390 442 16 44 31 87 33 95 42
174 53 387 29 527 -37 210 -107 396 -217 572 -69 110 -189 268 -217 284 -25
15 -26 15 -26 -16z"/>
</g>
</svg>
